<mxfile host="app.diagrams.net" agent="Mozilla/5.0 (Windows NT 10.0; Win64; x64) AppleWebKit/537.36 (KHTML, like Gecko) Chrome/138.0.0.0 Safari/537.36" version="28.0.1">
  <diagram name="Sayfa -1" id="ovyk1ROWQpTZFEBrgGEh">
    <mxGraphModel dx="1042" dy="562" grid="1" gridSize="10" guides="1" tooltips="1" connect="1" arrows="1" fold="1" page="1" pageScale="1" pageWidth="827" pageHeight="1169" math="0" shadow="0">
      <root>
        <mxCell id="0" />
        <mxCell id="1" parent="0" />
        <mxCell id="bYPZiJC8aFg5KGE7Bmnl-3" value="" style="edgeStyle=orthogonalEdgeStyle;rounded=0;orthogonalLoop=1;jettySize=auto;html=1;" parent="1" source="bYPZiJC8aFg5KGE7Bmnl-1" target="bYPZiJC8aFg5KGE7Bmnl-2" edge="1">
          <mxGeometry relative="1" as="geometry" />
        </mxCell>
        <mxCell id="bYPZiJC8aFg5KGE7Bmnl-1" value="START" style="ellipse;whiteSpace=wrap;html=1;" parent="1" vertex="1">
          <mxGeometry x="280" y="60" width="120" height="80" as="geometry" />
        </mxCell>
        <mxCell id="bYPZiJC8aFg5KGE7Bmnl-5" value="" style="edgeStyle=orthogonalEdgeStyle;rounded=0;orthogonalLoop=1;jettySize=auto;html=1;entryX=0.5;entryY=0;entryDx=0;entryDy=0;" parent="1" source="bYPZiJC8aFg5KGE7Bmnl-2" target="bYPZiJC8aFg5KGE7Bmnl-8" edge="1">
          <mxGeometry relative="1" as="geometry">
            <Array as="points" />
          </mxGeometry>
        </mxCell>
        <mxCell id="bYPZiJC8aFg5KGE7Bmnl-2" value="first = 1&lt;div&gt;second = 2&lt;/div&gt;&lt;div&gt;sum = first + second&lt;/div&gt;&lt;div&gt;evensum = 2&lt;/div&gt;" style="rounded=0;whiteSpace=wrap;html=1;" parent="1" vertex="1">
          <mxGeometry x="280" y="200" width="120" height="80" as="geometry" />
        </mxCell>
        <mxCell id="bYPZiJC8aFg5KGE7Bmnl-59" style="edgeStyle=orthogonalEdgeStyle;rounded=0;orthogonalLoop=1;jettySize=auto;html=1;exitX=0.5;exitY=1;exitDx=0;exitDy=0;entryX=0.5;entryY=0;entryDx=0;entryDy=0;" parent="1" source="bYPZiJC8aFg5KGE7Bmnl-4" target="bYPZiJC8aFg5KGE7Bmnl-19" edge="1">
          <mxGeometry relative="1" as="geometry" />
        </mxCell>
        <mxCell id="bYPZiJC8aFg5KGE7Bmnl-63" style="edgeStyle=orthogonalEdgeStyle;rounded=0;orthogonalLoop=1;jettySize=auto;html=1;exitX=1;exitY=0.5;exitDx=0;exitDy=0;entryX=0;entryY=0.5;entryDx=0;entryDy=0;" parent="1" source="bYPZiJC8aFg5KGE7Bmnl-4" target="bYPZiJC8aFg5KGE7Bmnl-16" edge="1">
          <mxGeometry relative="1" as="geometry" />
        </mxCell>
        <mxCell id="bYPZiJC8aFg5KGE7Bmnl-4" value="sum % 2 == 0" style="rhombus;whiteSpace=wrap;html=1;" parent="1" vertex="1">
          <mxGeometry x="280" y="660" width="120" height="80" as="geometry" />
        </mxCell>
        <mxCell id="bYPZiJC8aFg5KGE7Bmnl-10" value="" style="edgeStyle=orthogonalEdgeStyle;rounded=0;orthogonalLoop=1;jettySize=auto;html=1;" parent="1" source="bYPZiJC8aFg5KGE7Bmnl-8" edge="1">
          <mxGeometry relative="1" as="geometry">
            <mxPoint x="340" y="440" as="targetPoint" />
          </mxGeometry>
        </mxCell>
        <mxCell id="bYPZiJC8aFg5KGE7Bmnl-8" value="print first&lt;div&gt;print second&lt;/div&gt;" style="shape=parallelogram;perimeter=parallelogramPerimeter;whiteSpace=wrap;html=1;fixedSize=1;" parent="1" vertex="1">
          <mxGeometry x="280" y="330" width="120" height="60" as="geometry" />
        </mxCell>
        <mxCell id="bYPZiJC8aFg5KGE7Bmnl-40" style="edgeStyle=orthogonalEdgeStyle;rounded=0;orthogonalLoop=1;jettySize=auto;html=1;exitX=0.5;exitY=1;exitDx=0;exitDy=0;entryX=0.5;entryY=0;entryDx=0;entryDy=0;" parent="1" source="bYPZiJC8aFg5KGE7Bmnl-14" edge="1">
          <mxGeometry relative="1" as="geometry">
            <mxPoint x="339.99764705882353" y="565" as="targetPoint" />
          </mxGeometry>
        </mxCell>
        <mxCell id="bYPZiJC8aFg5KGE7Bmnl-68" style="edgeStyle=orthogonalEdgeStyle;rounded=0;orthogonalLoop=1;jettySize=auto;html=1;exitX=1;exitY=0.5;exitDx=0;exitDy=0;entryX=0;entryY=0.5;entryDx=0;entryDy=0;" parent="1" source="bYPZiJC8aFg5KGE7Bmnl-14" target="bYPZiJC8aFg5KGE7Bmnl-51" edge="1">
          <mxGeometry relative="1" as="geometry" />
        </mxCell>
        <mxCell id="bYPZiJC8aFg5KGE7Bmnl-14" value="sum &amp;lt;= 4000000" style="rhombus;whiteSpace=wrap;html=1;" parent="1" vertex="1">
          <mxGeometry x="270" y="440" width="140" height="80" as="geometry" />
        </mxCell>
        <mxCell id="jX_MZr093N2uugWsJERp-1" style="edgeStyle=orthogonalEdgeStyle;rounded=0;orthogonalLoop=1;jettySize=auto;html=1;exitX=0.5;exitY=1;exitDx=0;exitDy=0;entryX=1;entryY=0.5;entryDx=0;entryDy=0;" edge="1" parent="1" source="bYPZiJC8aFg5KGE7Bmnl-16" target="bYPZiJC8aFg5KGE7Bmnl-19">
          <mxGeometry relative="1" as="geometry" />
        </mxCell>
        <mxCell id="bYPZiJC8aFg5KGE7Bmnl-16" value="evensum += sum" style="rounded=0;whiteSpace=wrap;html=1;" parent="1" vertex="1">
          <mxGeometry x="480" y="667.5" width="120" height="65" as="geometry" />
        </mxCell>
        <mxCell id="bYPZiJC8aFg5KGE7Bmnl-66" style="edgeStyle=orthogonalEdgeStyle;rounded=0;orthogonalLoop=1;jettySize=auto;html=1;exitX=0.5;exitY=1;exitDx=0;exitDy=0;entryX=0;entryY=0.5;entryDx=0;entryDy=0;" parent="1" source="bYPZiJC8aFg5KGE7Bmnl-19" target="bYPZiJC8aFg5KGE7Bmnl-14" edge="1">
          <mxGeometry relative="1" as="geometry">
            <Array as="points">
              <mxPoint x="340" y="870" />
              <mxPoint x="200" y="870" />
              <mxPoint x="200" y="480" />
            </Array>
          </mxGeometry>
        </mxCell>
        <mxCell id="bYPZiJC8aFg5KGE7Bmnl-19" value="first = second&lt;div&gt;second = sum&lt;/div&gt;&lt;div&gt;sum = first + second&lt;/div&gt;" style="rounded=0;whiteSpace=wrap;html=1;" parent="1" vertex="1">
          <mxGeometry x="280" y="790" width="120" height="60" as="geometry" />
        </mxCell>
        <mxCell id="bYPZiJC8aFg5KGE7Bmnl-29" value="TRUE" style="text;html=1;align=center;verticalAlign=middle;resizable=0;points=[];autosize=1;strokeColor=none;fillColor=none;" parent="1" vertex="1">
          <mxGeometry x="260" y="520" width="60" height="30" as="geometry" />
        </mxCell>
        <mxCell id="bYPZiJC8aFg5KGE7Bmnl-37" value="FALSE" style="text;html=1;align=center;verticalAlign=middle;resizable=0;points=[];autosize=1;strokeColor=none;fillColor=none;" parent="1" vertex="1">
          <mxGeometry x="414" y="440" width="60" height="30" as="geometry" />
        </mxCell>
        <mxCell id="bYPZiJC8aFg5KGE7Bmnl-57" style="edgeStyle=orthogonalEdgeStyle;rounded=0;orthogonalLoop=1;jettySize=auto;html=1;exitX=0.5;exitY=1;exitDx=0;exitDy=0;entryX=0.5;entryY=0;entryDx=0;entryDy=0;" parent="1" source="bYPZiJC8aFg5KGE7Bmnl-47" target="bYPZiJC8aFg5KGE7Bmnl-4" edge="1">
          <mxGeometry relative="1" as="geometry" />
        </mxCell>
        <mxCell id="bYPZiJC8aFg5KGE7Bmnl-47" value="print sum" style="shape=parallelogram;perimeter=parallelogramPerimeter;whiteSpace=wrap;html=1;fixedSize=1;" parent="1" vertex="1">
          <mxGeometry x="280" y="565" width="120" height="60" as="geometry" />
        </mxCell>
        <mxCell id="jX_MZr093N2uugWsJERp-2" style="edgeStyle=orthogonalEdgeStyle;rounded=0;orthogonalLoop=1;jettySize=auto;html=1;exitX=1;exitY=0.5;exitDx=0;exitDy=0;" edge="1" parent="1" source="bYPZiJC8aFg5KGE7Bmnl-51" target="jX_MZr093N2uugWsJERp-3">
          <mxGeometry relative="1" as="geometry">
            <mxPoint x="650" y="480" as="targetPoint" />
          </mxGeometry>
        </mxCell>
        <mxCell id="bYPZiJC8aFg5KGE7Bmnl-51" value="print evensum" style="shape=parallelogram;perimeter=parallelogramPerimeter;whiteSpace=wrap;html=1;fixedSize=1;" parent="1" vertex="1">
          <mxGeometry x="480" y="450" width="120" height="60" as="geometry" />
        </mxCell>
        <mxCell id="bYPZiJC8aFg5KGE7Bmnl-64" value="TRUE" style="text;html=1;align=center;verticalAlign=middle;resizable=0;points=[];autosize=1;strokeColor=none;fillColor=none;" parent="1" vertex="1">
          <mxGeometry x="400" y="660" width="60" height="30" as="geometry" />
        </mxCell>
        <mxCell id="bYPZiJC8aFg5KGE7Bmnl-65" value="FALSE" style="text;html=1;align=center;verticalAlign=middle;resizable=0;points=[];autosize=1;strokeColor=none;fillColor=none;" parent="1" vertex="1">
          <mxGeometry x="260" y="740" width="60" height="30" as="geometry" />
        </mxCell>
        <mxCell id="bYPZiJC8aFg5KGE7Bmnl-67" style="edgeStyle=orthogonalEdgeStyle;rounded=0;orthogonalLoop=1;jettySize=auto;html=1;exitX=0.5;exitY=1;exitDx=0;exitDy=0;" parent="1" source="bYPZiJC8aFg5KGE7Bmnl-51" target="bYPZiJC8aFg5KGE7Bmnl-51" edge="1">
          <mxGeometry relative="1" as="geometry" />
        </mxCell>
        <mxCell id="jX_MZr093N2uugWsJERp-3" value="EXIT" style="ellipse;whiteSpace=wrap;html=1;" vertex="1" parent="1">
          <mxGeometry x="650" y="440" width="90" height="80" as="geometry" />
        </mxCell>
      </root>
    </mxGraphModel>
  </diagram>
</mxfile>
